<svg xmlns="http://www.w3.org/2000/svg" xmlns:xlink="http://www.w3.org/1999/xlink" version="1.0" x="0px" y="0px" viewBox="0 0 100 125" enable-background="new 0 0 100 100" xml:space="preserve"><path d="M42.4,25.8c1,0,1.8-0.8,1.8-1.8s-0.8-1.8-1.8-1.8S40.6,23,40.6,24S41.4,25.8,42.4,25.8z M42.4,23.2c0.4,0,0.8,0.3,0.8,0.8  s-0.3,0.8-0.8,0.8s-0.8-0.3-0.8-0.8S42,23.2,42.4,23.2z"/><path d="M34.8,22.2c-1,0-1.8,0.8-1.8,1.8s0.8,1.8,1.8,1.8s1.8-0.8,1.8-1.8S35.8,22.2,34.8,22.2z M34.8,24.8c-0.4,0-0.8-0.3-0.8-0.8  s0.3-0.8,0.8-0.8s0.8,0.3,0.8,0.8S35.2,24.8,34.8,24.8z"/><path d="M38.6,33.6c0.7,1.4,2.1,2.3,3.8,2.3c2.4,0,4.3-1.9,4.3-4.3c0-0.3-0.2-0.5-0.5-0.5s-0.5,0.2-0.5,0.5c0,1.8-1.5,3.3-3.3,3.3  c-1.8,0-3.2-1.4-3.3-3.2l2-3.5l5.3-2.5c0.2-0.1,0.3-0.3,0.3-0.5v-5l2.2-0.8c0.3-0.1,0.4-0.4,0.3-0.6c-0.1-0.3-0.4-0.4-0.6-0.3  l-10,3.7l-10-3.7c-0.3-0.1-0.5,0-0.6,0.3s0,0.5,0.3,0.6l2.2,0.8v5c0,0.2,0.1,0.4,0.3,0.5l5.3,2.5l2,3.5c-0.1,1.8-1.5,3.2-3.3,3.2  c-1.8,0-3.3-1.5-3.3-3.3c0-0.3-0.2-0.5-0.5-0.5s-0.5,0.2-0.5,0.5c0,2.4,1.9,4.3,4.3,4.3C36.4,35.9,37.9,35,38.6,33.6z M39.1,23.1  l6.6-2.5V25l-5,2.4h-1.6V23.1z M31.5,25v-4.3l6.6,2.5v4.2h-1.6L31.5,25z M37.3,28.3h2.7l-1.3,2.3L37.3,28.3z"/><path d="M14,75.8c-0.1,0.1,0,0.3,0,0.4l8.9,19c0.1,0.2,0.3,0.3,0.5,0.3h3.8h8.9h2.5h2.5H50h3.8h12.7c0.1,0,0.2,0,0.3-0.1l15.2-8.9  c0.1-0.1,0.2-0.2,0.2-0.3L86,72.3c0-0.2,0-0.3-0.1-0.5c-0.1-0.1-0.3-0.2-0.4-0.2L71.5,73c-0.1,0-0.3,0.1-0.4,0.2l-8.8,12.6l-6,5  l6.8-14.6c0.1-0.1,0.1-0.3,0-0.4l-5.1-12.7C58,63.1,58,63,58,63l5.2-13.4c0.1-0.1,0-0.3,0-0.4L54.3,34v-2.4l6.5,1.7c0,0,0.1,0,0.1,0  c0.2,0,0.4-0.1,0.5-0.4c0.1-0.3-0.1-0.5-0.4-0.6l-6.7-1.8v-1.2h7.1c0.3,0,0.5-0.2,0.5-0.5s-0.2-0.5-0.5-0.5h-7.1v-1.2l6.7-1.8  c0.3-0.1,0.4-0.3,0.4-0.6c-0.1-0.3-0.3-0.4-0.6-0.4l-6.5,1.7v-4.8V5c0-0.2-0.1-0.4-0.3-0.5c-0.2-0.1-0.4-0.1-0.5,0.1l-8.7,7.5H32.6  c0,0,0,0,0,0l-8.9-7.5c-0.2-0.1-0.4-0.2-0.5-0.1C23,4.6,22.9,4.8,22.9,5v16.5v4.8l-6.5-1.7c-0.3-0.1-0.5,0.1-0.6,0.4  c-0.1,0.3,0.1,0.5,0.4,0.6l6.7,1.8v1.2h-7.1c-0.3,0-0.5,0.2-0.5,0.5s0.2,0.5,0.5,0.5h7.1v1.2l-6.7,1.8c-0.3,0.1-0.4,0.3-0.4,0.6  c0.1,0.2,0.3,0.4,0.5,0.4c0,0,0.1,0,0.1,0l6.5-1.7V34l-8.8,15.1c-0.1,0.1-0.1,0.3,0,0.4L19.2,63c0,0-0.1,0.1-0.1,0.2L14,75.8z   M40.6,87.3c0,0,0,0.1,0,0.1v7.1h-2h-2v-7.1c0,0,0-0.1,0-0.1l-5-18.7l7-4.7l7,4.7L40.6,87.3z M63,86.5C63,86.5,63.1,86.5,63,86.5  l8.8-12.6l13-1.2l-3.6,13.1l-14.9,8.7H54.6l0.8-1.6c0,0,0,0,0,0L63,86.5z M62.1,76l-8.6,18.5h-3v-3.3c0-0.1-0.1-0.3-0.1-0.4L48,88.5  l9.4-24.3L62.1,76z M53.3,6.1v14.2l-7.6-7.6L53.3,6.1z M23.9,6.1l7.7,6.5l-7.7,7.7V6.1z M23.9,27.6l3.3,0.9h-3.3V27.6z M23.9,29.5  h3.3l-3.3,0.9V29.5z M23.9,31.4l7.2-1.9c0,0,0,0,0,0c0,0,0.1,0,0.1,0c0,0,0,0,0,0c0,0,0,0,0,0c0,0,0,0,0,0c0,0,0,0,0.1-0.1  c0,0,0,0,0.1-0.1c0,0,0,0,0-0.1c0,0,0,0,0,0c0,0,0,0,0,0c0,0,0,0,0-0.1c0,0,0,0,0,0s0,0,0,0c0,0,0,0,0-0.1c0,0,0,0,0,0c0,0,0,0,0,0  c0,0,0,0,0-0.1c0,0,0,0,0-0.1c0,0,0,0,0-0.1c0,0,0,0,0,0c0,0,0,0-0.1,0c0,0,0,0-0.1,0c0,0,0,0-0.1,0c0,0,0,0,0,0l-7.2-1.9v-4.8  l8.6-8.6h12.3l8.6,8.6v4.8l-7.2,1.9c0,0,0,0,0,0c0,0,0,0-0.1,0c0,0,0,0-0.1,0c0,0,0,0-0.1,0c0,0,0,0,0,0c0,0,0,0,0,0c0,0,0,0,0,0.1  c0,0,0,0,0,0.1c0,0,0,0,0,0c0,0,0,0,0,0c0,0,0,0,0,0.1c0,0,0,0,0,0s0,0,0,0c0,0,0,0,0,0.1c0,0,0,0,0,0c0,0,0,0,0,0c0,0,0,0,0,0.1  c0,0,0,0.1,0.1,0.1c0,0,0,0.1,0.1,0.1c0,0,0,0,0,0c0,0,0,0,0,0c0,0,0,0,0,0c0,0,0.1,0,0.1,0c0,0,0,0,0,0l7.2,1.9v2.6l-8.6,8.6H32.5  l-8.6-8.6V31.4z M50,28.5l3.3-0.9v0.9H50z M53.3,29.5v0.9L50,29.5H53.3z M15.1,49.4L23.5,35l8.4,8.4c0.1,0.1,0.2,0.1,0.4,0.1h12.7  c0.1,0,0.3-0.1,0.4-0.1l8.4-8.4l8.4,14.4L47,88.5c-0.1,0.2,0,0.4,0.1,0.5l2.4,2.4v3.1h-7.9v-7l5.1-19c0.1-0.2,0-0.4-0.2-0.5  l-7.6-5.1c-0.2-0.1-0.4-0.1-0.6,0L30.7,68c-0.2,0.1-0.3,0.3-0.2,0.5l5.1,19v7h-7.9v-3.1l2.4-2.4c0.1-0.1,0.2-0.3,0.1-0.5L15.1,49.4z   M19.7,64.3l9.4,24.3l-2.3,2.3c-0.1,0.1-0.1,0.2-0.1,0.4v3.3h-3L15.1,76L19.7,64.3z"/><text x="0" y="115" fill="#000000" font-size="5px" font-weight="bold" font-family="'Helvetica Neue', Helvetica, Arial-Unicode, Arial, Sans-serif">Created by Arthur Shlain</text><text x="0" y="120" fill="#000000" font-size="5px" font-weight="bold" font-family="'Helvetica Neue', Helvetica, Arial-Unicode, Arial, Sans-serif">from the Noun Project</text></svg>